<svg width="103" height="104" viewBox="0 0 103 104" fill="none" xmlns="http://www.w3.org/2000/svg">
<g clip-path="url(#clip0_1_951)">
<path d="M38.8846 67.1169C37.6826 67.1169 36.6264 66.2792 36.4079 65.0408L31.2723 37.2139L9.6372 33.171C8.25314 32.916 7.379 31.6048 7.63396 30.2208C7.88892 28.8367 9.20013 27.9626 10.5842 28.2175L33.8947 32.5518C34.9145 32.7339 35.7158 33.5352 35.8979 34.5551L41.3613 64.0938C41.6163 65.4779 40.7057 66.7891 39.3581 67.0441C39.2124 67.0441 39.0667 67.0805 38.8846 67.0805V67.1169Z" fill="#FFFEF3"/>
<path d="M33.4216 37.5792C32.5839 37.5792 31.7462 37.1421 31.2727 36.3772C30.5443 35.1753 30.9085 33.6455 32.1104 32.9171L52.325 20.5334C53.5269 19.8049 55.0567 20.1692 55.7852 21.3711C56.5136 22.5731 56.1494 24.1028 54.9474 24.8313L34.7329 37.215C34.3322 37.4699 33.8587 37.5792 33.4216 37.5792Z" fill="#FFFEF3"/>
<path d="M47.1887 59.5405L38.8843 64.6396L15.5738 60.3053L10.1104 30.7666L30.3614 18.3829L53.6719 22.7172L57.3142 42.4582L63.1054 41.147L59.4996 21.6245C59.0625 19.2206 57.1685 17.3266 54.7646 16.8895L31.4541 12.5553C31.0899 12.4824 30.7257 12.446 30.3614 12.446C29.2688 12.446 28.2125 12.7374 27.2655 13.3201L7.01451 25.6674C4.93842 26.9422 3.84574 29.3825 4.28282 31.7864L9.74621 61.3252C10.1833 63.7291 12.0773 65.6231 14.4812 66.0601L37.7917 70.3944C38.1559 70.4673 38.5201 70.5037 38.8843 70.5037C39.977 70.5037 41.0333 70.2123 41.9803 69.6295L46.0596 67.1164L47.1887 59.4676V59.5405Z" fill="#FFFEF3"/>
<path d="M72.5749 38.9635L93.2266 50.6188L88.8559 80.3396L65.6911 85.5481L45.0394 73.8928L49.4101 44.1719L72.5749 38.9635ZM72.5749 33.0266C72.1379 33.0266 71.7008 33.063 71.2637 33.1723L48.0989 38.3807C45.695 38.9271 43.9103 40.8575 43.5461 43.2978L39.1754 73.0187C38.8111 75.459 39.9767 77.8265 42.1256 79.0284L62.7772 90.6837C63.6878 91.1936 64.6712 91.4485 65.6911 91.4485C66.1281 91.4485 66.5652 91.4121 67.0023 91.3029L90.1671 86.0944C92.571 85.5481 94.3557 83.6177 94.7199 81.1774L99.0906 51.4565C99.4548 49.0162 98.2893 46.6487 96.1404 45.4467L75.4888 33.7915C74.5782 33.2816 73.5948 33.0266 72.5749 33.0266Z" fill="#FFFEF3"/>
<path d="M65.7293 88.0608C65.7293 88.0608 65.4744 88.0608 65.3651 88.0608C63.981 87.8423 63.0341 86.5675 63.2526 85.1835L67.3684 57.1744L48.21 46.3569C47.0081 45.6649 46.571 44.1351 47.2631 42.9332C47.9551 41.7312 49.4848 41.2942 50.6868 41.9862L71.3384 53.6414C72.249 54.1514 72.7589 55.1712 72.5768 56.191L68.2061 85.9119C68.024 87.1503 66.9313 88.0608 65.7293 88.0608Z" fill="#FFFEF3"/>
<path d="M70.0997 58.3393C68.9342 58.3393 67.9143 57.538 67.6594 56.3725C67.368 55.0249 68.2057 53.6772 69.5533 53.3494L92.7181 48.141C94.0658 47.8496 95.4134 48.6873 95.7412 50.035C96.0326 51.3826 95.1949 52.7302 93.8472 53.058L70.6824 58.2665C70.5003 58.3029 70.3182 58.3393 70.1361 58.3393H70.0997Z" fill="#FFFEF3"/>
<path d="M36.1903 68.4284C35.7168 68.3191 35.2069 68.1734 34.7334 68.0642C34.3327 67.9549 33.8592 67.9549 33.4222 67.8092C33.3493 67.8092 33.2765 67.8092 33.2036 67.8092C32.9851 67.8092 32.7666 67.8092 32.548 67.8092C32.3295 67.8092 32.1474 67.8092 31.9288 67.8092C31.9288 67.8092 31.8924 67.8092 31.856 67.8092C31.7832 67.8092 31.6739 67.8092 31.601 67.8092L1.37024 98.0764C0.204713 99.242 0.204713 101.1 1.37024 102.265C1.953 102.848 2.71788 103.139 3.44633 103.139C4.17478 103.139 4.97608 102.848 5.52242 102.265L38.7035 69.084C37.8293 68.9019 36.9916 68.6833 36.1539 68.4648L36.1903 68.4284Z" fill="#FFFEF3"/>
<path d="M102.007 1.62854C100.841 0.463013 98.9836 0.463013 97.8181 1.62854L63.6172 35.8294C64.7827 35.538 65.9847 35.3195 67.1502 35.2102C68.6799 35.0645 70.5011 35.1374 71.958 35.8658L102.007 5.81714C103.172 4.65162 103.172 2.79406 102.007 1.62854Z" fill="#FFFEF3"/>
</g>
<defs>
<clipPath id="clip0_1_951">
<rect width="102.348" height="102.348" fill="white" transform="translate(0.496094 0.754395)"/>
</clipPath>
</defs>
</svg>
