<svg width="108" height="101" viewBox="0 0 108 101" fill="none" xmlns="http://www.w3.org/2000/svg">
<g clip-path="url(#clip0_1_944)">
<path d="M32.9941 62.1893C49.2616 62.1893 62.4491 49.0018 62.4491 32.7343C62.4491 16.4667 49.2616 3.2793 32.9941 3.2793C16.7265 3.2793 3.53906 16.4667 3.53906 32.7343C3.53906 49.0018 16.7265 62.1893 32.9941 62.1893Z" stroke="#FFFEF3" stroke-width="5.82882" stroke-miterlimit="10"/>
<path d="M75.5839 62.1893C91.8514 62.1893 105.039 49.0018 105.039 32.7343C105.039 16.4667 91.8514 3.2793 75.5839 3.2793C59.3164 3.2793 46.1289 16.4667 46.1289 32.7343C46.1289 49.0018 59.3164 62.1893 75.5839 62.1893Z" stroke="#FFFEF3" stroke-width="5.82882" stroke-miterlimit="10"/>
<path d="M54.2909 97.3561C70.5585 97.3561 83.7459 84.1687 83.7459 67.9012C83.7459 51.6336 70.5585 38.4462 54.2909 38.4462C38.0234 38.4462 24.8359 51.6336 24.8359 67.9012C24.8359 84.1687 38.0234 97.3561 54.2909 97.3561Z" stroke="#FFFEF3" stroke-width="5.82882" stroke-miterlimit="10"/>
</g>
<defs>
<clipPath id="clip0_1_944">
<rect width="107.328" height="99.9061" fill="white" transform="translate(0.625 0.365112)"/>
</clipPath>
</defs>
</svg>
