<svg width="1397" height="302" viewBox="0 0 1397 302" fill="none" xmlns="http://www.w3.org/2000/svg">
<path fill-rule="evenodd" clip-rule="evenodd" d="M268.781 90.5133V77.3625C137.943 157.831 196.419 159.555 65.0395 76.5964V279.22C65.0395 282.955 62.0071 285.955 58.3045 285.955H7.48889C3.75432 285.955 0.753906 282.923 0.753906 279.22V11.2256C0.753906 8.3848 3.0521 6.05469 5.92484 6.05469H69.1571C70.0189 6.05469 70.9765 6.27812 71.8383 6.82075C88.6598 15.1198 144.423 58.4982 166.32 57.4129C167.501 57.3172 168.682 57.4129 169.895 57.4129C191.472 58.5939 245.511 14.9283 261.886 6.82075C262.748 6.27812 263.61 6.05469 264.567 6.05469H328.31C330.928 6.05469 333.066 8.19328 333.066 10.8107V279.22C333.066 282.955 330.034 285.955 326.331 285.955H275.643C271.909 285.955 268.908 282.923 268.908 279.22V90.5133H268.813H268.781Z" fill="#333333"/>
<path fill-rule="evenodd" clip-rule="evenodd" d="M435.431 249.6C409.002 226.426 393.681 192.017 392.5 145.638V11.1301C392.5 8.86379 394.543 6.27832 398.118 6.27832H448.04C451.615 6.27832 453.657 8.86379 453.657 11.1301V145.511C453.657 176.153 460.009 201.816 478.363 215.829C495.823 229.299 510.506 233.193 545.553 233.193C580.601 233.193 595.284 229.203 612.743 215.829C630.969 201.816 637.449 176.153 637.449 145.511V11.545C637.449 9.27874 639.492 6.69327 643.067 6.69327H692.989C696.564 6.69327 698.607 9.27874 698.607 11.545V139.797C698.607 189.08 683.062 225.437 655.579 249.6C627.873 273.858 598.635 286.913 545.553 286.913C492.471 286.913 463.137 273.986 435.431 249.6Z" fill="#333333"/>
<path fill-rule="evenodd" clip-rule="evenodd" d="M967.783 155.661V60.0947H830.69C826.061 60.0947 822.391 56.3283 822.391 51.7957V15.0246C822.391 10.3963 826.157 6.72559 830.69 6.72559H1026.55C1031.08 6.72559 1033.89 10.0771 1033.89 13.0775V148.224C1033.89 198.05 1020.42 231.278 996.798 252.313C972.954 273.444 939.95 287.361 892.485 287.361C849.777 287.361 815.911 278.072 789.929 261.474C764.68 245.291 747.221 217.776 742.592 170.121C742.273 167.216 744.539 163.865 748.753 163.226L798.036 156.108C802.664 155.47 806.112 158.598 806.559 161.822C809.367 184.676 815.177 206.7 829.221 219.628C843.234 232.555 863.63 231.055 889.294 231.055C918.404 231.055 935.896 231.055 949.685 216.723C963.506 202.487 967.815 179.824 967.815 155.661H967.783Z" fill="#333333"/>
<path fill-rule="evenodd" clip-rule="evenodd" d="M1086.91 144.928C1086.91 100.878 1102.65 65.0636 1129.52 40.1463C1156.43 15.229 1195.09 0.75 1241.96 0.75C1288.82 0.75 1327.39 15.229 1354.18 40.1463C1380.87 64.9718 1396.57 100.756 1396.57 144.928C1396.57 189.099 1380.96 224.363 1354.27 248.791C1327.48 273.31 1289.01 287.36 1242.05 287.36C1195.09 287.36 1156.52 272.973 1129.62 248.362C1102.62 223.751 1086.88 188.365 1086.88 144.928H1086.91ZM1333.61 144.101C1333.61 114.623 1327.82 91.8788 1312.09 76.757C1296.48 61.7576 1272.87 56.1864 1241.87 56.1864C1210.86 56.1864 1187.35 61.7576 1171.64 76.757C1155.91 91.8482 1150.12 114.5 1150.12 144.101C1150.12 173.702 1155.91 199.446 1171.64 214.537C1187.26 229.536 1210.86 235.107 1241.87 235.107C1272.87 235.107 1296.38 229.536 1312.09 214.537C1327.7 199.446 1333.61 173.671 1333.61 144.101Z" fill="#333333"/>
</svg>
