<svg width="43" height="43" viewBox="0 0 43 43" fill="none" xmlns="http://www.w3.org/2000/svg">
<path d="M21.75 4.20352C27.3609 4.20352 28.0254 4.22812 30.232 4.32656C32.2828 4.4168 33.3902 4.76133 34.1285 5.04844C35.1047 5.42578 35.8102 5.88516 36.5402 6.61523C37.2785 7.35352 37.7297 8.05078 38.107 9.02695C38.3941 9.76523 38.7387 10.8809 38.8289 12.9234C38.9273 15.1383 38.952 15.8027 38.952 21.4055C38.952 27.0164 38.9273 27.6809 38.8289 29.8875C38.7387 31.9383 38.3941 33.0457 38.107 33.784C37.7297 34.7602 37.2703 35.4656 36.5402 36.1957C35.802 36.934 35.1047 37.3852 34.1285 37.7625C33.3902 38.0496 32.2746 38.3941 30.232 38.4844C28.0172 38.5828 27.3527 38.6074 21.75 38.6074C16.1391 38.6074 15.4746 38.5828 13.268 38.4844C11.2172 38.3941 10.1098 38.0496 9.37149 37.7625C8.39531 37.3852 7.68984 36.9258 6.95977 36.1957C6.22148 35.4574 5.77031 34.7602 5.39297 33.784C5.10586 33.0457 4.76133 31.9301 4.67109 29.8875C4.57266 27.6727 4.54805 27.0082 4.54805 21.4055C4.54805 15.7945 4.57266 15.1301 4.67109 12.9234C4.76133 10.8727 5.10586 9.76523 5.39297 9.02695C5.77031 8.05078 6.22969 7.34531 6.95977 6.61523C7.69805 5.87695 8.39531 5.42578 9.37149 5.04844C10.1098 4.76133 11.2254 4.4168 13.268 4.32656C15.4746 4.22812 16.1391 4.20352 21.75 4.20352ZM21.75 0.421875C16.0488 0.421875 15.3352 0.446484 13.0957 0.544922C10.8645 0.643359 9.33047 1.0043 8.00156 1.52109C6.61523 2.0625 5.44219 2.77617 4.27734 3.94922C3.1043 5.11406 2.39063 6.28711 1.84922 7.66524C1.33242 9.00234 0.971484 10.5281 0.873047 12.7594C0.774609 15.007 0.75 15.7207 0.75 21.4219C0.75 27.123 0.774609 27.8367 0.873047 30.0762C0.971484 32.3074 1.33242 33.8414 1.84922 35.1703C2.39063 36.5566 3.1043 37.7297 4.27734 38.8945C5.44219 40.0594 6.61524 40.7812 7.99336 41.3145C9.33047 41.8313 10.8563 42.1922 13.0875 42.2906C15.327 42.3891 16.0406 42.4137 21.7418 42.4137C27.443 42.4137 28.1566 42.3891 30.3961 42.2906C32.6273 42.1922 34.1613 41.8313 35.4902 41.3145C36.8684 40.7812 38.0414 40.0594 39.2063 38.8945C40.3711 37.7297 41.093 36.5566 41.6262 35.1785C42.143 33.8414 42.5039 32.3156 42.6023 30.0844C42.7008 27.8449 42.7254 27.1313 42.7254 21.4301C42.7254 15.7289 42.7008 15.0152 42.6023 12.7758C42.5039 10.5445 42.143 9.01055 41.6262 7.68164C41.1094 6.28711 40.3957 5.11406 39.2227 3.94922C38.0578 2.78438 36.8848 2.0625 35.5066 1.5293C34.1695 1.0125 32.6438 0.651563 30.4125 0.553125C28.1648 0.446484 27.4512 0.421875 21.75 0.421875Z" fill="#333333"/>
<path d="M21.748 10.6348C15.7926 10.6348 10.9609 15.4664 10.9609 21.4219C10.9609 27.3773 15.7926 32.209 21.748 32.209C27.7035 32.209 32.5352 27.3773 32.5352 21.4219C32.5352 15.4664 27.7035 10.6348 21.748 10.6348ZM21.748 28.4191C17.8844 28.4191 14.7508 25.2855 14.7508 21.4219C14.7508 17.5582 17.8844 14.4246 21.748 14.4246C25.6117 14.4246 28.7453 17.5582 28.7453 21.4219C28.7453 25.2855 25.6117 28.4191 21.748 28.4191Z" fill="#333333"/>
<path d="M35.482 10.2088C35.482 11.6033 34.35 12.7272 32.9637 12.7272C31.5691 12.7272 30.4453 11.5951 30.4453 10.2088C30.4453 8.81426 31.5773 7.69043 32.9637 7.69043C34.35 7.69043 35.482 8.82246 35.482 10.2088Z" fill="#333333"/>
</svg>
