<svg width="86" height="116" viewBox="0 0 86 116" fill="none" xmlns="http://www.w3.org/2000/svg">
<g clip-path="url(#clip0_1_934)">
<path d="M16.0367 115.525C14.1825 115.525 12.6528 114.969 12.421 113.069C12.2356 111.817 8.71264 81.7331 48.3921 40.1995C50.9879 37.5109 56.2723 32.7828 61.9276 26.5713C63.0864 25.3197 65.0333 24.2999 66.3776 25.4124C67.6755 26.5249 66.9338 28.9817 65.6823 30.9749C62.7156 35.7031 56.365 42.749 53.8619 45.3912C16.9637 84.0044 19.8841 111.817 19.8841 112.095C20.1158 114.135 18.5861 115.201 16.5002 115.479C16.3148 115.479 16.1757 115.479 15.9903 115.479L16.0367 115.525Z" fill="#FFFEF3"/>
<path d="M31.1013 100.46C25.5851 100.46 20.4397 99.1617 16.0361 96.6123C8.10946 92.0232 2.40786 82.7059 0.785454 71.7199C-1.3005 57.7209 3.19588 43.5828 13.1621 32.9212C25.3533 19.8493 39.7232 15.2602 53.5832 10.8565C61.7879 8.26066 70.2244 5.52575 78.4292 1.07572C79.4953 0.473114 80.7933 0.473114 81.9058 1.02937C83.0183 1.58562 83.7599 2.65177 83.9453 3.85699C84.1771 5.52575 89.8324 45.1125 74.7672 71.5345C66.8406 85.3945 54.603 95.4534 41.1602 99.1154C37.73 100.042 34.3461 100.506 31.1013 100.506V100.46ZM77.0385 10.2075C69.8999 13.5451 62.7614 15.8164 55.8545 18.0415C42.319 22.3524 29.5252 26.4316 18.6319 38.0666C10.2881 47.013 6.48705 58.8797 8.20217 70.6074C9.50009 79.3684 13.8111 86.646 19.7908 90.0763C25.0752 93.1357 31.982 93.7383 39.2133 91.7914C50.5701 88.732 61.4171 79.7392 68.2312 67.7798C78.9391 49.0062 78.012 21.6107 77.0385 10.2075Z" fill="#FFFEF3"/>
</g>
<defs>
<clipPath id="clip0_1_934">
<rect width="84.875" height="114.913" fill="white" transform="translate(0.273438 0.613281)"/>
</clipPath>
</defs>
</svg>
