<?xml version="1.0" standalone="no"?>
<!DOCTYPE svg PUBLIC "-//W3C//DTD SVG 20010904//EN"
 "http://www.w3.org/TR/2001/REC-SVG-20010904/DTD/svg10.dtd">
<svg version="1.0" xmlns="http://www.w3.org/2000/svg"
 width="672.000000pt" height="672.000000pt" viewBox="0 0 672.000000 672.000000"
 preserveAspectRatio="xMidYMid meet">
<metadata>
Created by potrace 1.14, written by Peter Selinger 2001-2017
</metadata>
<g transform="translate(0.000000,672.000000) scale(0.100000,-0.100000)"
fill="#000000" stroke="none">
<path d="M112 6217 c-11 -5 -24 -19 -29 -31 -6 -13 -9 -485 -9 -1214 l1 -1194
24 -19 c22 -18 41 -19 279 -19 141 1 263 5 273 10 9 5 21 22 26 37 5 16 8 421
8 901 -1 480 2 875 7 878 4 3 13 0 20 -5 7 -6 90 -61 183 -123 94 -61 235
-158 315 -214 176 -123 283 -189 341 -210 48 -16 118 -25 134 -16 5 3 19 7 31
8 40 4 138 62 323 188 101 69 187 126 191 126 5 0 10 4 12 8 3 9 185 129 298
199 l66 39 -1 -894 0 -894 24 -19 c22 -18 39 -20 193 -19 93 1 171 0 173 -2 2
-1 44 -1 94 2 74 5 93 9 106 25 12 17 14 102 15 575 2 1277 0 1833 -5 1849
-10 34 -62 39 -365 37 l-295 -1 -61 -38 c-34 -20 -67 -44 -74 -52 -7 -8 -16
-15 -21 -15 -4 0 -77 -46 -161 -103 -387 -260 -513 -308 -683 -259 -53 15
-230 100 -276 133 -15 10 -30 19 -33 19 -6 0 -97 58 -277 176 -69 46 -138 88
-152 95 -15 7 -27 15 -27 19 0 4 -10 11 -22 15 -33 11 -622 13 -646 2z"/>
<path d="M3688 6210 c-18 -14 -19 -39 -18 -695 1 -675 2 -743 15 -820 3 -22 8
-52 11 -66 24 -152 104 -359 189 -489 104 -160 332 -352 525 -442 74 -34 189
-74 239 -83 19 -3 37 -8 40 -10 4 -2 25 -6 47 -9 22 -4 49 -8 60 -10 128 -25
515 -25 659 -1 116 20 223 47 290 75 88 35 118 49 175 83 88 51 104 61 110 67
3 3 30 24 60 46 30 23 82 68 116 100 60 58 164 187 164 204 0 5 6 15 13 22 18
18 80 150 106 223 34 100 62 234 78 380 2 22 5 348 5 724 1 656 1 684 -17 697
-15 11 -75 14 -275 14 -235 0 -258 -2 -273 -18 -15 -16 -17 -86 -17 -733 -1
-742 -1 -746 -44 -935 -7 -34 -71 -168 -92 -194 -88 -107 -206 -186 -335 -224
-97 -28 -190 -37 -389 -38 -295 -2 -427 26 -589 123 -59 35 -161 134 -161 156
0 7 -4 13 -9 13 -11 0 -66 129 -81 191 -35 146 -38 208 -39 924 -1 618 -4 712
-17 725 -22 23 -518 23 -546 0z"/>
<path d="M5056 3283 c-1 -1 -42 -5 -91 -8 -50 -3 -115 -9 -145 -15 -30 -5 -71
-12 -90 -15 -119 -20 -277 -74 -422 -145 -165 -82 -381 -266 -465 -397 -9 -15
-20 -30 -23 -33 -15 -14 -59 -90 -53 -90 5 0 3 -4 -3 -8 -12 -8 -70 -127 -79
-162 -2 -11 -27 -86 -32 -100 -15 -39 -39 -145 -49 -220 -9 -67 -10 -378 -1
-440 5 -39 16 -98 31 -165 43 -204 170 -433 327 -594 75 -77 217 -191 238
-191 5 0 11 -4 13 -9 3 -10 228 -123 228 -114 0 3 6 1 13 -4 12 -10 162 -58
207 -67 14 -2 61 -12 105 -20 177 -35 437 -39 660 -11 107 13 260 55 380 102
81 32 222 102 249 124 6 5 40 30 76 56 78 57 213 191 255 253 16 25 33 47 36
50 12 9 108 194 125 240 28 79 57 180 69 240 3 14 7 36 10 50 18 92 24 321 11
454 -29 303 -161 594 -364 803 -168 174 -346 278 -612 361 -69 22 -76 23 -209
47 -93 17 -385 37 -395 28z m279 -557 c104 -14 122 -18 195 -38 76 -21 182
-69 207 -94 8 -8 18 -14 21 -14 13 0 116 -106 137 -141 31 -52 65 -123 75
-156 29 -95 31 -108 49 -241 13 -100 5 -368 -14 -462 -55 -270 -158 -422 -345
-508 -76 -35 -116 -50 -147 -57 -13 -3 -33 -7 -45 -10 -88 -20 -171 -27 -324
-30 -446 -6 -703 106 -829 360 -68 139 -95 279 -97 515 -2 154 8 261 33 354
10 39 21 79 23 88 17 64 78 160 146 228 123 124 284 189 510 207 41 3 76 6 78
8 5 4 281 -3 327 -9z"/>
<path d="M1263 3183 c-37 -7 -46 -53 -48 -237 -1 -179 5 -225 32 -247 13 -12
136 -14 675 -15 362 -1 661 -4 664 -7 13 -12 7 -1039 -5 -1121 -45 -281 -177
-441 -401 -483 -14 -3 -158 -7 -320 -9 -387 -5 -470 10 -575 107 -50 46 -105
122 -105 145 0 7 -4 14 -9 14 -4 0 -20 35 -34 78 -37 110 -47 155 -63 267 -7
53 -23 83 -48 92 -12 4 -23 6 -26 6 -3 -1 -30 -4 -60 -8 -64 -7 -89 -11 -150
-21 -25 -4 -56 -8 -70 -10 -33 -3 -172 -24 -202 -29 -37 -7 -57 -39 -53 -88 9
-93 38 -258 50 -277 4 -6 8 -21 11 -34 2 -12 18 -56 34 -97 72 -174 157 -289
290 -390 25 -19 47 -36 50 -39 12 -12 183 -100 235 -121 95 -38 234 -77 335
-94 19 -3 48 -8 63 -11 88 -18 482 -25 592 -11 519 69 891 346 1018 757 31
103 35 116 42 155 2 17 7 39 9 50 5 28 17 134 22 203 2 31 3 212 3 402 0 190
0 354 0 365 0 11 0 67 0 125 -1 58 -1 112 0 120 0 8 0 62 0 120 -1 58 -1 112
0 120 0 8 1 53 1 100 0 78 -3 87 -25 107 l-25 22 -942 -1 c-519 -1 -953 -3
-965 -5z"/>
</g>
</svg>
