<svg width="84" height="73" viewBox="0 0 84 73" fill="none" xmlns="http://www.w3.org/2000/svg">
<path fill-rule="evenodd" clip-rule="evenodd" d="M32.6386 10.6796V8.86074C17.1402 18.372 24.0747 18.5993 8.53843 8.78495V30.8767C8.53843 31.3694 8.1595 31.7483 7.66688 31.7483H1.79342C1.30081 31.7483 0.921875 31.3694 0.921875 30.8767V1.54733C0.921875 1.05471 1.30081 0.675781 1.79342 0.675781H8.99315C8.99315 0.675781 9.22051 0.675781 9.2963 0.751568C11.2667 1.73679 17.8981 6.85239 20.4748 6.73871C20.6264 6.73871 20.7401 6.73871 20.8916 6.73871C23.4305 6.89028 29.8345 1.6989 31.767 0.751568C31.8807 0.675781 31.9565 0.675781 32.0702 0.675781H39.2699C39.7625 0.675781 40.1414 1.05471 40.1414 1.54733V30.8767C40.1414 31.3694 39.7625 31.7483 39.2699 31.7483H33.4343C32.9417 31.7483 32.5628 31.3694 32.5628 30.8767V10.6796H32.6386Z" fill="#333333"/>
<path fill-rule="evenodd" clip-rule="evenodd" d="M50.9371 29.4747C47.7919 26.7464 46.0109 22.6539 45.8594 17.1594V1.24418C45.8594 0.978928 46.1246 0.675781 46.5415 0.675781H52.4528C52.8696 0.675781 53.1349 0.978928 53.1349 1.24418V17.1594C53.1349 20.7971 53.8928 23.8286 56.0527 25.4959C58.1368 27.0874 59.842 27.5421 64.0103 27.5421C68.1785 27.5421 69.8837 27.0874 71.9679 25.4959C74.1278 23.8286 74.8857 20.7971 74.8857 17.1594V1.31997C74.8857 1.05471 75.113 0.751568 75.5677 0.751568H81.4791C81.8959 0.751568 82.1612 1.05471 82.1612 1.31997V16.5152C82.1612 22.3508 80.3423 26.6706 77.0835 29.5126C73.7867 32.3925 70.3385 33.9461 64.0482 33.9461C57.7579 33.9461 54.3096 32.3925 51.0129 29.5126" fill="#333333"/>
<path fill-rule="evenodd" clip-rule="evenodd" d="M32.4085 56.3033V44.9732H16.1902C15.6597 44.9732 15.205 44.5185 15.205 43.988V39.6302C15.205 39.0997 15.6597 38.645 16.1902 38.645H39.3809C39.9114 38.645 40.2524 39.0618 40.2524 39.4029V55.3939C40.2524 61.3052 38.6609 65.2082 35.8568 67.7092C33.0527 70.2101 29.1497 71.8775 23.5036 71.8775C18.4638 71.8775 14.4471 70.7785 11.3777 68.8081C8.38417 66.9134 6.30004 63.6167 5.76953 58.0085C5.76953 57.6675 5.99689 57.2506 6.4895 57.1748L12.3251 56.3412C12.8556 56.2654 13.2724 56.6443 13.3482 57.0233C13.6892 59.7516 14.3713 62.3283 16.0386 63.882C17.7059 65.4356 20.0932 65.2461 23.1626 65.2461C26.6109 65.2461 28.695 65.2461 30.3244 63.5409C31.9538 61.8357 32.4464 59.1832 32.4464 56.3033" fill="#333333"/>
<path fill-rule="evenodd" clip-rule="evenodd" d="M44.875 55.2422C44.875 49.7855 46.8076 45.3899 50.1422 42.3206C53.4768 39.2512 58.2513 37.4702 64.0111 37.4702C69.7709 37.4702 74.5455 39.2512 77.8422 42.3206C81.1389 45.3899 83.0715 49.8234 83.0715 55.2422C83.0715 60.6609 81.1389 65.0565 77.8422 68.0501C74.5455 71.0816 69.7709 72.8247 64.0111 72.8247C58.2513 72.8247 53.4389 71.0437 50.1422 68.0122C46.8454 64.9808 44.875 60.623 44.875 55.2422ZM75.3412 55.1285C75.3412 51.4907 74.6212 48.6866 72.6887 46.8299C70.7561 44.9731 67.8383 44.291 64.0111 44.291C60.1839 44.291 57.2661 44.9731 55.3336 46.8299C53.401 48.6866 52.681 51.4907 52.681 55.1285C52.681 58.7663 53.401 61.9493 55.3336 63.8061C57.2661 65.6628 60.1839 66.3449 64.0111 66.3449C67.8383 66.3449 70.7561 65.6628 72.6887 63.8061C74.6212 61.9493 75.3412 58.7663 75.3412 55.1285Z" fill="#333333"/>
</svg>
